<?xml version="1.0" encoding="UTF-8"?>
<svg xmlns="http://www.w3.org/2000/svg" height="1181.79" viewBox="0 0 2328.92 1181.79" width="2328.92">
  <defs>
    <style>
      .b { fill: #181818; }
      .c { fill: #e8e8e8; }
    </style>
  </defs>
  <path class="c" d="M935.93,841.63c-10.23,4.65-18.43,5.23-24.37,1.74-6.29-3.7-9.99-11.87-10.99-24.27-1.2-14.73-.45-35.51.34-57.5,1.48-41.08,3.15-87.63-7.36-109.7-8.37-17.58-27.4-29.72-53.57-34.19-36.78-6.29-79.46,4-99.28,23.92-6.5,6.54-10.34,13.82-11.1,21.05-.67,6.39,1.09,12.39,4.97,16.9,6.06,7.06,17.49,10.28,29.37,1.59,6.95-5.09,6.79-12.25,6.62-19.84-.21-9.17-.42-18.65,11.21-26.51,18.8-12.71,54.79-11.26,69.98,8.56,4.44,5.79,8.99,18.5,11.32,31.64,2.56,14.4,1.98,26.2-1.53,31.57-3.99,6.09-36.71,16.87-60.6,24.75-12.4,4.09-23.11,7.62-28.34,9.92-35.08,15.44-55.46,37.72-57.38,62.71-1.52,19.7,9.26,39.43,28.12,51.49,12.09,7.72,25.86,11.58,40.08,11.58s28.97-3.89,42.86-11.66c13.86-7.76,24.57-20.22,34.93-32.27l1.77-2.06c1.28,3.71,2,7.51,2.71,11.18,1.12,5.82,2.27,11.84,5.62,17.5,6.48,10.92,17.79,16.71,31.05,15.88,15.07-.95,28.51-10.1,34.25-23.33.08-.19.04-.41-.11-.56s-.37-.18-.56-.1ZM866.14,714.7v78.37c0,3.49-7.76,21.64-10.25,25.39-9.01,13.57-27.21,24.26-46.36,27.23-14.97,2.32-28.34-.51-37.64-7.97-14.26-11.44-19.7-32.48-13.86-53.6,8.26-29.87,41.78-41.86,71.36-52.43,8.23-2.94,16.01-5.72,22.85-8.75,2.54-1.12,4.55-2.63,6.49-4.08,2.34-1.75,4.55-3.41,7.41-4.15Z"/>
  <path class="c" d="M723.96,309.89c-5.93-8.87-15.08-13.65-26.46-13.81-19.92-.27-41.72,13.38-51.23,26.78l-27.13,43.46v-72.25c0-.18-.1-.35-.25-.44-.16-.09-.35-.09-.5,0l-30.59,18.33-31.3,9.64c-.13.04-.24.13-.3.26s-.07.27-.02.39c1.36,3.73,5.02,4.2,8.55,4.65,1.8.23,3.66.47,5.19,1.13,7.22,3.13,11.35,12.84,12.23,20.98-1.8,24.4-.73,50.83.31,76.38,1.14,28.12,2.32,57.21-.34,83.59-2.42,24.12-15.58,27.99-19.55,28.6-.15.02-.28.11-.36.25-.08.13-.09.29-.03.43,2.23,5.58,7.11,4.36,11.83,3.19,1.88-.47,3.82-.95,5.55-.99,23.12-.52,45.67.18,67.02,2.08.02,0,.03,0,.04,0,.24,0,.45-.17.49-.41.39-2.21.31-3.38-.26-4.02-.55-.62-1.39-.58-2.28-.53-.75.04-1.6.08-2.47-.22-15.73-5.33-20.84-11.74-22.76-28.58-2.83-24.75-1.99-72.69-.29-97.78.67-9.85,3.76-26.39,10.45-43.27,6.71-16.94,20.05-41.51,41.43-43.49,2.59-.24,5.2-.02,7.75.48,13.71,2.69,14.42,8.32,15.09,13.73.33,2.62.64,5.1,2.45,6.99,4.07,4.27,12.83,4.87,21.72-2.24,9.17-7.34,14.59-20.5,6.02-33.32Z"/>
  <path class="c" d="M996.3,307.01c.2-.07.33-.26.32-.47s-.13-.4-.33-.47l-10.98-3.97-.17-.03h-49c-.25,0-.47.19-.5.44-.37,3.88,2.57,4.89,5.68,5.95,2.14.73,4.57,1.57,6.58,3.39,7.78,7.09,5.71,16.06,3.52,25.55-.24,1.04-.48,2.08-.71,3.12-6.63,30.33-44.52,117.98-58.92,144.91-.24.46-.46.97-.67,1.48-.96,2.3-1.7,3.66-3.83,3.17-1.46-.62-7.71-14.79-9.76-19.44-.56-1.28-1.02-2.3-1.3-2.92-2.9-6.33-6.21-13.38-9.7-20.84-16.23-34.66-36.43-77.8-44.43-106.92l-.17-.6c-2.54-9.25-5.17-18.81-1.27-25.28,2.1-3.48,5.89-5.78,11.58-7.04.11-.03.22-.09.29-.18.19-.25.22-.59.08-1.01-.41-1.19-2.51-3.55-3.34-3.76-.04-.01-.08-.02-.12-.02h-81c-.24,0-.45.18-.49.42-.38,2.12-.31,3.31.22,3.96.52.63,1.32.66,2.17.68.71.02,1.5.04,2.31.39,14.2,6.12,16.74,7.88,24.38,21.26,19.29,33.79,36.23,75.82,52.6,116.47,9.55,23.71,18.57,46.1,27.99,66.88,1.09,2.4,2.21,4.95,3.35,7.56,3.24,7.37,6.58,14.99,10.04,21.19.35.63.47,1.27.58,1.88.26,1.43.64,2.48,2.61,2.48.37,0,.79-.04,1.29-.12,3.76-.17,5.1-3.17,6.29-5.81.27-.61.54-1.21.84-1.78,15.82-30.16,29.29-65.06,42.31-98.81,10.57-27.4,21.5-55.73,33.61-81.3.97-2.05,1.95-4.17,2.94-6.34,8.04-17.49,17.14-37.32,35.12-44.07Z"/>
  <path class="c" d="M1123.63,619.84c-27.14-12.77-49.76,4.03-64.41,17.78l-.08.09-30,46.65v-65.3c0-.69-.41-1.37-1.18-1.96-1.35-1.03-3.95-1.8-6.1-1.21-1.05.29-4.15,2.36-9.12,5.72-5.34,3.61-11.99,8.1-15.59,9.7-4.57,2.04-9.44,3.58-14.15,5.07-5.56,1.76-11.3,3.58-16.61,6.23-.2.1-.31.32-.27.54s.23.39.46.4c27.52,1.93,26.61,24.14,25.72,45.63-.36,8.66-.73,17.61.81,25.01.03.15.13.28.27.34l32.16,15.86.13.04c.84.17,1.46.25,1.93.25.5,0,.83-.1,1.07-.29.43-.35.43-.88.43-1.4,0-.44,0-.95.22-1.52,1.2-3.27,1.48-6.73,1.75-10.08.2-2.44.4-4.96.96-7.34,2.42-10.31,11.82-44.99,31.03-58.48,7.17-5.04,19.35-9.23,29.14-6.54,5.12,1.41,8.8,4.53,10.93,9.28,1.05,2.33,1.23,4.4,1.4,6.22.41,4.52,1.09,6.84,11.16,6.11,12.23-.9,19.45-10.71,21.17-20.03,2.13-11.49-3.06-22-13.22-26.79Z"/>
  <path class="c" d="M1048.73,856.1c-14.75-2.61-18.08-17.85-19.33-30.83-1.25-12.9-.8-26.66-.37-39.96.42-13.06.86-26.57-.31-39.46-1.65-5.6-16.97-13.66-21.17-15.43-.44-.19-1-.45-1.63-.75-3.47-1.63-8.7-4.09-11.75-2.7-1,.46-1.68,1.29-2.01,2.47l-.02.13v104c0,.58-1.1,2.95-2.08,5.04-1.29,2.76-2.75,5.89-3.04,7.59l-12.75,14.03c-.13.15-.17.36-.09.54s.26.3.46.3h71c.69,0,2.83-2.41,3.35-3.47.27-.56.29-1,.04-1.31-.08-.1-.19-.16-.31-.18Z"/>
  <path class="c" d="M1099.77,546.87c6.82,1.21,13.59,1.8,20.27,1.8,35.13,0,67.55-16.46,89.34-46.19,6.19-8.45,11.87-16.8,13.25-26.04.02-.16-.04-.34-.16-.45-1.01-.88-2.16-1.24-3.44-1.07-4.92.68-10.73,9.53-14.96,16-1.76,2.69-3.28,5.01-4.3,6.08-9.65,10.1-29.84,20.54-43.21,22.35-31.39,4.25-58.36-2.77-77.99-20.3-22.51-20.1-34.47-52.76-33.72-91.98l171.42-1.08c.24,0,.45-.17.49-.41,3.45-18.63.07-39.23-9.52-58.03-9.59-18.8-24.34-33.71-41.53-41.99-40.15-19.34-81.96-14.56-114.7,13.11-18.95,16.01-33.67,38.94-41.45,64.57-8.17,26.9-8.47,54.99-.89,81.26,12.44,43.05,47.34,74.62,91.1,82.39ZM1044.69,394.07c3.38-37.99,22.23-83.39,64.41-87.08,18.58-1.63,33.81,3,45.26,13.75,9.12,8.56,24.24,29.45,23.3,73.33h-132.97Z"/>
  <path class="c" d="M524.62,476.65c.03-.21-.07-.42-.26-.52-.19-.1-.42-.07-.58.08-4.06,3.84-7.45,8.21-10.73,12.44-4.18,5.39-8.51,10.96-14.26,15.48-24.12,18.97-60.4,23.27-92.43,10.94-20.3-7.81-36.15-23.45-45.84-45.21-8.41-18.89-11.93-41.88-9.91-64.79h171.54c.27,0,.49-.21.5-.48,1.46-28.09-5.77-52.97-20.93-71.98-13.57-17.01-33.45-29.01-55.98-33.8-24.43-5.19-50.17-1.8-72.47,9.54-24.57,12.5-43.11,33.59-53.63,60.98-9.79,25.5-12.42,52.88-7.63,79.17,4.62,25.38,15.76,48.1,32.21,65.7,20.99,22.47,48.49,34.17,78.59,34.17,12.29,0,25.02-1.95,37.92-5.92,26.58-8.18,59.35-37.22,63.89-65.83ZM351.18,394.07c2.5-32.42,14.39-59.4,32.67-74.07,13.89-11.15,31.12-15.33,51.2-12.41,15.55,2.26,28.77,12.25,37.24,28.13,2.57,4.82,9.85,23.9,9.85,27.85v30.5h-130.96Z"/>
  <path class="c" d="M674.64,634.89c3.2,1.3,5.63,4.49,6.79,6.02.58.76.76.99.99,1.08h0c4.88,2.05,9.74,1.17,13.71-2.47,5.74-5.28,8.38-15.13,6-22.43-1.7-5.24-5.78-8.48-11.48-9.14-18.74-2.16-38.64,12.71-53.17,23.57-1.5,1.12-2.96,2.21-4.37,3.25-24.08-14.92-54.62-21.42-83.83-17.81-31.65,3.9-57.36,19.18-72.4,43.03-17.42,27.64-13.6,66.93,8.9,91.41,1.12,1.22,3.93,3.36,7.18,5.84,5.57,4.25,15.86,12.09,14.82,14.4-26.44,10.3-44.36,31.21-43.61,50.91.36,9.56,5.65,26.94,36.78,36.68-3.7,2.36-7.61,4.64-11.73,7.05-20.65,12.07-44.06,25.75-45.47,53.05-.72,13.91,4.18,26.09,14.55,36.21,14.13,13.78,35.51,20.88,50.96,24.42,17.52,4.01,37.46,5.7,53.43,4.51l1.96,5.76c.05.16.18.28.35.32.04.01.08.02.13.02.12,0,.24-.04.33-.13.66-.6,1.3-1.32,1.91-2.02,1.27-1.46,2.59-2.97,4.3-3.47,4.75-1.37,11.33-2.05,18.3-2.78,6.34-.66,12.89-1.34,18.3-2.59,33.15-7.67,62.75-26.96,77.24-50.36,10.28-16.6,13.18-34.69,8.62-53.77-5.52-23.1-21.14-37.46-47.74-43.92-23.13-5.62-51.71-4.52-76.93-3.56-19.5.75-37.91,1.45-51.77-.88-9.19-1.54-15.8-5.18-19.66-10.8-3.67-5.36-4.66-12.31-2.95-20.67,1.63-7.93,15.09-19.27,22.65-20.69,4.55-.86,12.49,1.46,20.17,3.71,5.48,1.6,11.14,3.26,15.42,3.68,29.26,2.91,70.89-6.18,93.15-32.98,10.02-12.06,16.52-27.48,18.31-43.43,1.88-16.7-1.37-32.58-9.4-45.93-.93-1.55-2.99-3.88-5.37-6.59-4.59-5.21-10.85-12.33-9.46-14.83,11.52-5.12,20.65-9.13,34.07-3.67ZM606.92,756.55c-11.15,12.44-31.4,24.62-64.57,12.02-29.98-11.39-41.42-50.06-37.22-82.38,5.39-41.5,30.71-58.75,52.62-61.06,2.61-.27,5.17-.41,7.67-.41,22.74,0,40.9,11.25,51.62,32.24,15.84,31,11.31,75.67-10.12,99.58ZM663.75,887.18c12.68,31.15-6.58,61.46-31.13,74.16-33.89,17.53-99.01,19.74-132.19-3.69-17.42-12.3-24.7-29.91-21.63-52.34,2.32-16.91,24.48-40.92,40.88-44.3,15.91-3.27,66.7-1.46,83.4-.43,23.8,1.47,52.2,5.82,60.66,26.6Z"/>
  <path class="c" d="M1906.65,852.24c-.52-.29-1.01-.57-1.09-.63-5.2-4.72-7.77-21.75-8.4-30.1-1.62-21.52-.75-44.64.1-67,.92-24.33,1.88-49.49-.38-72.74-2.54-26.17-16.07-46.55-38.1-57.41-26.19-12.91-60.83-10.18-88.25,6.94-8.53,5.33-15.1,12.17-21.46,18.8-4.34,4.52-8.82,9.19-13.94,13.41v-43.95c0-.18-.09-.34-.24-.43l-4.78-2.84c-.18-.11-.4-.09-.57.04-12.45,9.88-27.23,15.68-41.54,21.3-4.46,1.75-9.07,3.56-13.56,5.48-.21.09-.33.3-.3.52.03.22.2.4.42.43,22.08,3.53,24.56,17.74,25.65,37.43.99,17.84.02,36.26-.91,54.08-.76,14.51-1.54,29.51-1.26,44.09.1,5.44.45,10.57.78,15.54.79,11.68,1.53,22.71-.9,36.05-2.83,15.55-3.92,17.17-16.67,24.68-.45.26-.93.29-1.41.32-.6.04-1.21.07-1.62.61-.48.62-.5,1.72-.09,3.79.05.23.25.41.49.41h80c.22,0,.42-.15.48-.36.06-.21-.02-.44-.21-.56l-15.02-9.87c-3.86-4.85-6.03-9.07-6.64-12.91-4.41-27.51-5.92-124.1-1.24-148.83,2.26-11.96,10.22-23.77,22.4-33.27,11.31-8.82,24.98-14.65,37.49-16,18.37-1.97,33.22,1.62,44.15,10.67,11.66,9.66,18.42,25.04,20.07,45.69,2.68,33.42,3.15,97.67-.23,133.63-.58,6.2-1.79,14.99-5.55,19.94l-19.94,10.92c-.2.11-.3.34-.24.56.06.22.26.38.48.38h77c2.42,0,3.65-.44,3.9-1.37.46-1.77-3.22-4.26-8.89-7.46Z"/>
  <path class="c" d="M1401.76,299.67c-35.3-13.85-63.81,22.89-77.66,46.03-1.29,2.16-3.8,7.96-6.01,13.07-1.81,4.19-3.87,8.95-4.3,9.4-1.93,1.62-2.46,1.36-2.51,1.32-.35-.24-.67-1.46,1.1-6.99.21-.66.25-.79.26-.91.76-13.83.5-28.61.25-42.9-.12-6.99-.25-14.22-.25-21.13,0-.56-1.88-2.7-3.19-3.04-.71-.18-1.33.07-1.71.71-12.6,12.39-30.82,21.18-55.71,26.87-.14.03-.27.13-.33.26s-.07.29-.02.42c1.43,3.43,4.75,4.17,7.95,4.89,1.73.39,3.51.78,5.01,1.6,6.78,3.68,10.2,9.93,11.08,20.27,1.82,21.33,1.55,49.19,1.31,73.77-.05,5.07-.1,9.97-.12,14.59-.01,2.34,0,5.47,0,9.15.04,22.61.12,64.69-3.76,73.79-.4.94-6.71,11.19-7.34,11.92-1.33,1.54-3.13,2.38-4.88,3.19-2.28,1.06-4.43,2.06-5.26,4.46-.05.15-.03.32.07.45s.25.21.41.21h76c.19,0,.36-.11.45-.27.08-.17.07-.37-.04-.52-1.86-2.57-3.94-3.67-6.15-4.84-2.22-1.17-4.52-2.39-6.74-5.3-3.53-4.64-4.54-10.89-5.43-16.4-.65-4.05-1.22-7.54-2.7-9.47-.81-1.05-2.4-1.67-4.08-2.32-2.21-.86-4.5-1.74-5.15-3.63-.48-1.38-.04-3.2,1.33-5.54l8.79-2.97c.2-.07.33-.25.34-.45.42-11.37.14-23.19-.12-34.63-.5-21.36-1.01-43.46,2.89-64.17,4.06-21.55,15.93-48.36,33.3-59.66,8.43-5.49,17.6-7.12,27.27-4.85,6.32,1.48,8.8,7.33,11.2,12.98,1.94,4.58,3.78,8.9,7.59,10.09,2.89.9,6.63-.16,11.43-3.23,9.43-6.02,14.51-15.24,13.6-24.65-.92-9.4-7.7-17.46-18.15-21.56Z"/>
  <path class="c" d="M1705.86,244.67c13.32,0,24.16-10.84,24.16-24.16s-10.84-24.16-24.16-24.16-24.16,10.84-24.16,24.16,10.84,24.16,24.16,24.16Z"/>
  <path class="c" d="M1571.41,529.36c-18.21,9.94-45.25,9.12-62.55,3.18-28.84-9.91-45.64-41.92-51.75-68.58-.04-.16-.15-.3-.31-.35-.15-.06-.33-.04-.47.06-6.54,4.61-4.8,13.51-3.27,21.37.57,2.92,1.1,5.67,1.17,7.97.19,6.79.07,13.71-.04,20.42-.11,6.78-.23,13.79-.03,20.66,0,.13.06.26.16.35s.23.14.37.13c1.44-.08,2.79-.51,4.1-.93,1.55-.5,3.02-.96,4.61-.89,11.49.54,22.16,3.48,33.46,6.59,13.52,3.72,27.45,7.56,43.9,7.56,2.28,0,4.62-.07,7-.23,38.75-2.57,70-25.69,77.76-57.53,6.71-27.53-6.48-54.38-35.28-71.82-9.19-5.56-22.94-10.13-37.5-14.96-28.91-9.6-61.67-20.47-66.63-42.36-5.01-22.11,2.77-39.87,21.34-48.73,11.41-5.44,25.99-6.91,40-4.03,14.79,3.04,27.52,10.54,35.85,21.11,5.96,7.55,8.46,14.68,11.12,22.23,1.5,4.27,3.06,8.69,5.29,13.18.28.57.44,1.05.56,1.44.56,1.74,1.1,1.91,4.43,1.38.24-.04.43-.25.43-.5v-55c0-3.32-6.86-3.53-12.37-3.7-1.92-.06-3.58-.11-4.54-.29-7.16-1.32-13.5-2.87-19.63-4.37-15.55-3.8-28.98-7.08-49-5.12-26.52,2.6-49.95,16.89-61.14,37.29-6.4,11.66-11.54,30.46.31,53.84,12.58,24.81,41.47,34.99,69.4,44.83,37.61,13.25,73.14,25.77,61.53,72.95-2.43,9.86-8.58,17.55-18.3,22.85Z"/>
  <path class="c" d="M1912.85,296.58c-69.07,0-125.25,56.19-125.25,125.26s56.19,125.26,125.25,125.26,125.26-56.19,125.26-125.26-56.19-125.26-125.26-125.26ZM1829.79,424.52c-.89-52.96,20.78-109.62,63.94-115.44,44.27-5.97,73.35,8.83,88.92,45.22,9.35,21.86,14.11,50.1,13.04,77.48-1.16,29.83-9.16,56.28-22.52,74.48-16.49,22.45-40.02,32.31-69.96,29.29-22.74-2.29-41.68-15.18-54.76-37.28-11.56-19.52-18.18-45.72-18.66-73.76Z"/>
  <path class="c" d="M1745.11,540.74c.07-.2,0-.42-.15-.56-11.42-9.33-14.84-12.65-17.58-26.95-3.89-20.27-3.09-43.03-2.32-65.05.59-16.84,1.2-34.25-.34-50.34-2.05-7.02-26.57-16.98-34.01-17.77-.14-.01-.28.03-.39.13s-.17.23-.17.37v127c0,4.33-3.52,17.09-6.22,21.33l-13.6,11.29c-.16.13-.22.36-.15.55.07.2.26.33.47.33h74c.21,0,.4-.13.47-.33Z"/>
  <path class="c" d="M1680.56,330.76c8.17,5.99,8.65,19.56,9.03,30.46.08,2.37.16,4.61.31,6.63.01.19.13.35.3.42l33.73,14.25c.06.03.13.04.19.04.09,0,.19-.03.27-.08.14-.09.22-.24.23-.41.33-11.61.13-23.45-.06-34.9-.2-11.87-.4-24.15-.02-36.17.06-1.79.54-3.68,1-5.51,1.08-4.27,2.2-8.68-2.12-11.79-.2-.14-.47-.12-.65.05-13.99,14.03-32.86,20.25-51.1,26.27-2.58.85-5.15,1.7-7.7,2.57-.17.06-.29.2-.33.37-.04.17.02.35.16.47,2.55,2.28,5.71,3.15,8.76,4,2.73.76,5.55,1.54,7.98,3.33Z"/>
  <path class="c" d="M1644.4,798.16c-.2-.12-.46-.09-.62.08l-24.99,25.9c-12.22,9.63-29.16,15.68-47.7,17.03-17.9,1.31-35.7-1.77-50.09-8.67-18.7-8.96-32-23.91-40.66-45.73-6.47-16.3-10.18-35.92-11.65-61.69h170.47c.12,0,.25-.05.34-.13,4.83-4.48,3.67-14.83,2.97-21.01l-.02-.21c-2.85-25.43-14.98-48.39-34.14-64.64-19.16-16.25-43.77-24.45-69.26-23.09-37.61,2-69.17,20.87-88.89,53.12-11.37,18.6-18.11,40.64-19.51,63.76-1.42,23.47,2.77,46.93,12.12,67.84,18.11,40.5,58.21,66.13,102.93,66.13,1.33,0,2.66-.02,4-.07,20.58-.7,40.07-6.89,56.34-17.9,17.55-11.87,30.89-29.2,38.58-50.11.08-.22,0-.47-.2-.6ZM1601.85,695.05c.46,6.19,1.08,14.66-4.29,17.01l-126.91,1.46c1.39-31.5,14.85-60.34,35.21-75.36,10.51-7.75,22.64-11.68,35.73-11.68,6.1,0,12.42.85,18.88,2.57,17.53,4.67,38.85,24.21,41.24,63.92.04.65.09,1.34.14,2.06Z"/>
  <path class="c" d="M209.05,306.75c-21.05-10.49-44.46-13.14-67.69-7.66-25.18,5.94-49.38,21.49-69.99,44.98-1.54.11-2.06,0-2.23-.08.13-.25.66-.74.96-1.01.6-.55,1.04-.95,1.04-1.41v-45c0-.16-.08-.32-.22-.41s-.31-.11-.46-.05c-6.45,2.48-12.39,6.05-18.14,9.51-5.26,3.16-10.69,6.43-16.51,8.86-8.41,3.51-17.46,5.79-25.28,7.64-.18.04-.32.19-.37.37-.33,1.35-.22,2.41.33,3.23,1,1.5,3.28,1.86,5.68,2.24,1.75.28,3.56.56,5.06,1.27,10.77,5.1,11.64,12.66,12.96,24.11l.02.13c-2.66,42.43-1.11,87.54.39,131.17,1.64,47.69,3.33,97.01-.49,142.87-.61,7.38-3,20.59-6.17,25.53-1.95,3.03-4.5,4.38-6.98,5.69-2.46,1.3-5.01,2.64-6.76,5.6-.09.15-.09.35,0,.5.09.16.25.25.43.25h82c.22,0,.42-.15.48-.37s-.03-.45-.22-.56l-16.75-10.17c-2.9-3.04-9.01-15.02-9.01-18.41v-120.43c5.58.85,10.05,5.05,14.78,9.49,2.72,2.56,5.54,5.2,8.62,7.19,29.69,19.16,66.36,21.92,100.62,7.6,37.14-15.53,65.13-48.74,73.04-86.67,6.77-32.49,4.15-63.78-7.58-90.5-10.8-24.59-29.12-44.3-51.57-55.5ZM218.36,485.11c-12.99,28.95-34.05,46.15-59.3,48.43-25.75,2.32-46.32-4-61.14-18.78-30.48-30.41-30.16-90.5-27.26-123.62,1.49-16.97,8.93-34.54,20.43-48.21,12.23-14.54,28.09-23.71,44.67-25.81,4.22-.53,8.33-.8,12.34-.8,25.02,0,45.82,10.36,60.64,30.36,25.46,34.37,29.59,93.88,9.61,138.42Z"/>
  <path class="c" d="M2324.37,542.12l-19.05-9.87c-4.36-3.72-7.03-9.37-8.16-17.28-2.43-17.01-1.59-40.73-.7-65.84,1.74-49.08,3.71-104.72-17.98-129.85-13.12-15.2-32.06-20.54-45.64-22.34-17.11-2.27-35.85-.22-51.39,5.63-21.31,8.02-30.91,18.83-44.18,33.8-.95,1.07-1.93,2.17-2.93,3.29-.41.46-.57,1.02-.71,1.51-.27.97-.46,1.63-2.96.99.14-4.99.04-10.07-.07-14.99-.11-5.15-.21-10.48-.04-15.68.06-1.93.57-4.01,1.07-6.02,1.17-4.78,2.38-9.72-2.17-13.27-.19-.15-.46-.14-.64.02-15.9,14.23-37.02,24.28-62.78,29.86l-.23.12c-.77.73-1.06,1.46-.84,2.2.67,2.28,6.16,3.47,12.21,4.59,1.47.27,2.75.51,3.2.68,10.23,3.91,12,12.72,13.03,22.19,4.21,38.7,2.69,111.05.35,147.76-.83,13.04-2.45,26.36-12.01,33.42-2.04,1.5-4.46,2.41-6.81,3.28-3.49,1.3-7.1,2.64-9.19,5.97-.1.15-.1.35-.01.51s.26.26.44.26h96.89c.22,0,.41-.14.47-.34l.78-2.35c.05-.15.03-.31-.06-.44-.09-.13-.23-.21-.38-.22-22.88-1.54-29.5-15.21-31.03-26.39-3.12-22.87-1.79-49.52-.51-75.29,1.15-23.21,2.34-47.22.3-68.48,4.77-17.12,17.42-31.98,34.73-40.79,18.6-9.47,39.74-10.96,58.01-4.1,31.82,11.94,31.02,49.68,30.38,80-.11,5.3-.22,10.31-.16,14.99.11,7.85.48,16.46.88,25.57.99,22.83,2.12,48.7-1,68.05-2.41,14.94-5.08,18.35-19.08,24.33-.82.35-1.61.37-2.32.39-.85.03-1.65.05-2.17.68-.54.67-.61,1.82-.22,3.96.04.24.25.42.49.42h92c.23,0,.43-.16.49-.38.05-.22-.05-.46-.26-.56Z"/>
  <path class="c" d="M1407.13,839.77c-.48.01-1.07.03-1.88-.15l-1.4-.31c-18.03-4.02-24.78-5.53-26.97-26.48.75-50.75.16-102.43-.41-152.41-.67-58.19-1.35-118.36.07-177.43.02-.69.28-2.08.58-3.69,1.14-5.99,1.91-11.08-.1-12.68-.76-.6-1.8-.61-3.1-.04-.05.02-.1.06-.15.1-.53.51-1.09,1.07-1.69,1.66-3.07,3.05-6.89,6.86-10.31,8.17-1.76.68-3.32.76-4.9.79-.07,0-.13.02-.19.04l-7.25,3.2c-12.63,7.88-25.5,12.14-39.35,13.03-.22.01-.4.17-.46.39-.36,1.54-.22,2.69.42,3.5,1.16,1.46,3.67,1.46,6.36,1.45,1.98,0,4,0,5.66.53,9.28,3,15.63,13.42,17.09,22.17,2.87,17.12,1.96,40.07,1.07,62.26-.57,14.19-1.1,27.59-.69,39.29.11,3.03.67,6.18,1.22,9.22.87,4.82,1.76,9.79,1,14.78l-22.79-17.14c-31.32-17.05-62.83-20.5-91.13-9.97-24.81,9.24-46.62,29.15-61.43,56.06-32.12,58.41-26.53,140.37,38.42,176.44,16.23,9.01,32.99,13.57,49.51,13.57,8.98,0,17.89-1.35,26.61-4.05,22.99-7.14,43.67-23.26,59.87-46.65l6.89,48.67c.02.15.11.28.23.35.12.08.28.1.42.05l59.91-19.98c.19-.06.32-.23.34-.43.26-2.76.28-3.52-.17-3.99-.34-.36-.8-.34-1.34-.33ZM1339.66,789.03c-2.32,21.35-16.02,39.16-37.59,48.85-24.91,11.2-55.26,9.05-75.52-5.34-27.78-19.74-47.8-75.61-33.24-134.96,9.68-39.42,32.42-64.38,62.41-68.5,4.46-.61,8.85-.91,13.13-.91,17.45,0,33.21,5.01,45.31,14.58,14.59,11.53,23.39,28.96,25.46,50.39,2.15,22.23,2.55,72.73.03,95.9Z"/>
  <path class="b" d="M757.05,783.98c-5.27,19.05-1.86,41.37,14.03,54.13,23.85,19.14,68.65,4.83,84.72-19.37,2.58-3.88,10.33-22.06,10.33-25.67v-79c-5.72,1.19-8.82,5.85-14.6,8.4-31.41,13.91-83.86,23.02-94.49,61.51ZM862.14,755.07l-19.99,22.01,17.98-7c4.69,27.7-3.98,51.89-29.91,65.07-26.66,13.56-67.03,9.7-70.16-25.99-5.21-59.52,60.4-67.9,102.08-87.08v33Z"/>
  <path class="b" d="M1109.05,305.99c-43.14,3.78-61.69,50.2-64.91,88.08h134c1.09-45.05-15.5-92.77-69.09-88.08ZM1050.14,390.07c.26-44.22,36.1-94.41,85.37-76.37,35.8,13.1,25.91,45.85,34.63,76.37h-120Z"/>
  <path class="b" d="M482.14,363.07c0-4.14-7.48-23.53-9.91-28.09-7.8-14.64-20.72-25.94-37.61-28.39-55.49-8.06-80.92,39.24-84.48,87.48h132v-31ZM478.14,390.07h-124c3.17-41.73,27.85-84.18,75.09-80.08,39.44,3.42,52.21,46.27,48.91,80.08Z"/>
  <path class="b" d="M677.35,606.28c-19,2.17-29.95,12.93-44.53,23.38-36.37-19.83-74.04-22.77-113.17-9.08-11.17,3.91-17.93,13.52-27.49,3.49,5.69,14.12-5.63,16.7-12.85,26.17-14.11,18.49-19.09,36.43-17.16,59.84-14.55,3.17-54.99-10.52-64.08-20.94-1.51-1.73-2.58-2.27-1.92-5.02l5.98-4.03c-7.17,1.52-12.16,3.62-19.49.46-2.84-1.22-23.33-19.92-26.55-23.44-7.1-7.76-50.45-64.33-51.07-69.97-.22-1.99,1.53-4.75,1.13-7.07-10.26,2.09-11.76-6.78-16.71-11.31-7.63-6.96-24.8-18.49-30.2-24.8-2.25-2.63-2.81-7.64-3.16-7.87-.27-.19-3.66,2.14-6.4,1.58-5.49-1.12-14.75-9.24-21.54-9.63,5.83-10.74,15.64-17.8,22.82-28.15,27.92-40.25,30.35-95.12,12.15-139.79-7.21-17.69-19.24-29.09-14.99-50.03-5.46.49-5.95,13.17-10.95,11.99-.7-.17-6-6.06-8.37-7.65-6.96-4.69-16.03-11.25-23.6-14.4-45.12-18.73-97.87-1.08-131.05,32.05v-44c-8.55-1.94-10.66,5.02-16.16,8.84-18.46,12.79-35.75,18.79-57.83,23.19-1.69,11.13,11.61,8.08,17.9,11.07,5.64,2.68,12.09,13.93,12.09,19.91v99l-16-1.98c10.39,8.28,14.6,13.21,15.98,27,3.66,36.57,3.51,117.14-.22,153.74-1.01,9.88-4.4,23.17-13.9,28.09-3.98,2.06-10.84,1.78-13.38,3.57-2.33,1.64-2.31,7.58.52,7.58h107c.14-12.82-18.52-8.17-27.32-16.68-2.56-2.48-8.68-15.37-8.68-18.32v-109c7.68-.32,13,7.88,19.36,11.64,23.08,13.66,50.95,16.87,77.4,14.11,14.79-1.54,35.96-14.16,46.16-13.88,19.56.54,61.72,25.82,65.1,48.11l1.98-6c2.82-.6,3.29.44,5.04,1.97,8,7.01,27.51,34.09,32.04,43.96,8.69,18.93,14.69,45.56,10.93,66.08,3.6-1.02,3.88-9.9,4.06-12.91.66-10.74-.21-21.5-2.11-32.06,4.15-4.17,4.04,1.84,5.96,3.94,15.78,17.17,30.63,34.98,51.41,46.7,7.62,4.3,20.57,7.37,27.38,12.62,5.75,4.44,11.42,15.18,18.29,19.71l-5-13.98,31.18,5.8c5.2,9.04,7.73,19.51,13.94,28.06,5.81,7.99,15.56,12.99,20.92,19.08,1.53,1.74,2.59,2.23,1.93,5.02-34.09,12.46-55.75,50.53-25.3,79.35,1.5,3.74,17.19,6.05,15.3,9.66-1.13,2.14-24.91,13.93-30.66,19.35-21.3,20.1-25.81,52.6-6.35,75.69,19.74,23.42,57.26,28.84,86.04,31.96,12.7,1.38,28.29-5.88,20.99,14l12.02-12.96c62.85-3.47,141.11-39.59,125.08-115.12-12.35-58.2-91.54-50.23-136.18-49.98-14.32.08-25.68,3.16-41.44-.39-23.26-5.24-31.76-21.96-11.49-38.55,16.29-13.33,25.24-1.22,43.23.81,63.89,7.22,123.68-31.48,116.77-100.77-1.83-18.41-11.71-29.77-21.98-43.99,6.49-6,21.13-7.38,27.89-1.92,3.14,2.54,5.77,11.11,10.77,10.61,9.24-6.6,18.14-5.95,19.45-18.6,2.55-24.65-3.16-27.62-26.9-24.91ZM94.31,530.9c-8.43-5.44-14.78-15.79-24.17-16.83v121c0,3.6,6.29,15.81,9.2,18.8l16.8,10.2H14.14c3.4-5.74,9.74-5.05,13.73-11.27,3.42-5.32,5.7-19.22,6.24-25.76,7.3-87.81-5.46-185.22.1-274.04-1.31-11.4-2.18-19.48-13.27-24.73-4.71-2.23-12.19-.43-10.8-6.17,8.57-2.03,17.19-4.25,25.36-7.67,12.23-5.11,22.36-13.64,34.64-18.36v45c0,.82-5.15,3.5.97,2.98,91.53-104.52,223.5-23.33,196.1,108.09-15.65,75.04-105.67,122.14-172.9,78.76ZM682.61,641.53c-.49-.2-3.37-5.31-7.79-7.11-13.43-5.46-22.31-1.72-34.6,3.74-2.75,3.98,11.87,17.31,14.74,22.08,16.55,27.53,11.29,64.52-8.87,88.78-20.77,25-61.17,35.94-92.72,32.8-10.17-1.01-27.72-8.89-35.73-7.39-7.93,1.49-21.37,12.96-23.04,21.08-3.69,17.95,5.2,29.08,23.01,32.07,50.41,8.46,159.07-22.96,176.03,47.97,13.07,54.68-38.38,92.63-85.48,103.52-11.23,2.6-27.42,2.73-36.63,5.37-2.72.78-4.39,3.78-6.41,5.6l-2.08-6.13c-39.74,3.06-121.57-11.03-118.8-64.59,1.7-32.69,34.92-45.47,57.88-60.28-59.17-17.87-41.48-68.64,6-87.03,2.53-3.68-18.46-17.16-21.97-20.98-22.18-24.13-26.34-63.05-8.84-90.81,32.21-51.09,107.94-54.76,155.83-24.88,15.3-11.23,36.91-29.29,57.45-26.92,21.62,2.5,10.64,40.93-7.99,33.08Z"/>
  <path class="b" d="M557.69,624.64c-66.7,7.02-71.11,123.29-15.52,144.4,103.74,39.4,116.32-155,15.52-144.4ZM601.44,757.36c-26.1,24.45-77.01,10.99-87.78-23.91-5.02-16.26,12.37-15.95,21.85-21.02,11.02-5.89,21.87-13.69,25.79-26.22.58-1.86,2.47-6.66-1.13-6.13-.88,9.81-15.72,23.96-24.35,26.66-5.33,1.67-25.56,3.61-27.39-1.95-3.61-45.59,28.9-90.52,78.3-72.31,43.46,16.02,45.1,96.41,14.71,124.88Z"/>
  <path class="b" d="M478.32,905.24c-10.66,77.84,106.79,81.24,154.54,56.54,26.91-13.92,43.42-45.17,31.36-74.79-9-22.11-40.32-25.63-61.09-26.91-18.06-1.11-67.82-2.8-83.53.44-16.54,3.4-38.94,27.69-41.28,44.72ZM501.49,876.41c3.81-3.13,15.72-10.99,20.11-11.89,15.09-3.11,64.27-1.64,81.63-.54,36.5,2.31,73.48,17.29,57.29,61.46-17.96,49-102.88,54.67-143.73,36.98-37.32-16.16-48.13-59.02-15.3-86.01Z"/>
  <path class="b" d="M1450.15,538.07c20.74-3.31,40.62,6.81,61.26,9.73,59.4,8.41,126.08-12.14,116.57-84.57-8.45-64.36-91.61-57.39-127.66-88.34-25.9-22.23-11-58.6,21.02-64.62,31.45-5.91,56.45,10.09,69.19,38.4,1.95,4.33,6.1,21.52,7.46,22.53,2.79,2.07,9.21.97,10.15-2.14v-62c0-3.12-23.27-4.57-28.41-5.59-21.71-4.3-37.35-9.45-60.56-7.38-79.11,7.04-99.09,93.72-26.41,130.35,25.23,12.71,83.57,22.49,92.81,51.19,15.18,47.12-35.13,68.22-72.81,54.81-25.47-9.06-37.32-26.89-47.6-50.4-2.87-6.56-3.1-22.97-13.77-19.84-6.43,1.89-1.32,13.9-1.17,18.78.62,19.65-.64,39.45-.08,59.09ZM1456.12,464.07c6.37,27.77,23.58,59.15,52.08,68.94,26.14,8.98,73.47,6.28,81.5-26.39,20.27-82.45-101.42-59.82-130.98-118.13-23.29-45.96,15.11-85.96,60.44-90.41,27.87-2.74,43.29,4.84,68.49,9.48,3.63.67,16.5-.41,16.5,3.5v55c-4.43.69-3.21,0-4.48-2.55-6.05-12.19-6.99-23.48-16.47-35.5-30.5-38.68-111.69-28.06-98.07,32.07,7.51,33.16,76.78,40.95,104.36,57.64,68.32,41.36,33.93,123.36-42.26,128.42-33.79,2.24-57.03-12.62-84.31-13.92-3.12-.15-5.74,1.67-8.76,1.83-.39-13.65.45-27.41.07-41.08-.23-8.5-6.76-22.81,1.89-28.91Z"/>
  <path class="b" d="M2041.8,421.96c0-71.37-57.86-129.23-129.23-129.23s-129.23,57.86-129.23,129.23,57.86,129.23,129.23,129.23,129.23-57.86,129.23-129.23ZM1788.09,421.84c0-68.9,55.85-124.76,124.76-124.76s124.76,55.85,124.76,124.76-55.85,124.76-124.76,124.76-124.76-55.85-124.76-124.76Z"/>
  <path class="b" d="M1730.2,293.05c-5.39-11.99-9.62-2.01-13.6,1.03-14.07,10.73-25.55,15.47-42.02,21.43-6.3,2.28-14.27,1.25-18.43,7.6-1.4,6.62,15.21,7.19,19.14,8.8,13.1,5.36,10.19,23.78,10.93,35.1.58,8.82.22,5.52-.21,13.95-2.1,40.9,3.38,83.43.1,124.08-1.49,18.51-5.6,28.81-25.74,31.25l-.23,7.78h96c2.11-11.04-3.77-6.83-12.12-10.88-13.75-6.69-14.89-24.42-15.86-38.13-1.92-27.16-.61-60.42-.12-88.07.06-3.46.98-6.56,2.16-9.74l-10.05-8.18,8.07-4.32,1.98-91.68ZM1723.73,397.48c3.51,36.79-4.23,79.43,2.66,115.34,2.81,14.65,6.49,18.05,17.76,27.24h-74l13.66-11.34c2.73-4.21,6.34-17.08,6.34-21.66v-127c7.43.79,31.61,10.64,33.59,17.41ZM1724.13,382.06l-33.73-14.25c-.86-11.34.61-29.99-9.55-37.45-5.26-3.86-12-3.1-16.7-7.3,20.78-7.07,42.94-12.87,58.99-28.95,5.82,4.18,1.1,10.85.91,16.88-.75,23.63.74,47.45.08,71.08Z"/>
  <path class="b" d="M1255.66,628.58c-80.28,11.01-87.5,163.08-29.39,204.36,39.21,27.86,108.25,8.01,113.89-43.86,2.44-22.47,2.17-73.27-.03-96-4.43-45.84-39.37-70.68-84.47-64.5ZM1336.16,787.08c-5.55,50.59-71.54,70.34-108.97,40.94-53.19-41.78-47.04-186.19,30.51-195.4,24.6-2.92,53.82,5.46,66.84,28.04,14.45,25.05,14.83,97.07,11.61,126.41Z"/>
  <path class="b" d="M1983.11,354.1c-16.81-39.3-47.91-51.12-89.45-45.52-84.4,11.37-90.48,217.41,9.5,227.47,95.64,9.62,108.11-116.11,79.95-181.95ZM1932.26,531.19c-118.98,31.31-132.75-209.08-30.57-220.55,111.85-12.55,119.39,197.17,30.57,220.55Z"/>
  <path class="b" d="M1602.21,692.99c-1.58-26.17-14.11-57.06-41.61-64.38-55.77-14.84-88.5,36.06-90.46,85.45l127.53-1.47c6.45-2.72,4.92-13.23,4.54-19.61ZM1593.14,710.07h-119c1.65-31.99,23.57-76.64,58.89-80.11,49.3-4.84,66.54,33.56,65.18,76.74-.4,1.31-4.54,3.37-5.07,3.37Z"/>
  <path class="b" d="M135.71,316.63c-35.62,4.51-62.51,39.95-65.54,74.47-5.6,63.87,3.97,150.6,88.94,142.94,97.84-8.82,102.43-233.34-23.4-217.41ZM126.59,526.62c-53.26-17.22-56.51-85.1-52.41-131.53,3.09-35.01,26.93-69.79,63.54-74.47,127.79-16.32,112.74,246.05-11.12,205.99Z"/>
  <path class="b" d="M2311.5,532.48c-6.09-3.22-8.87-9.38-10.13-15.88-4-20.54-5.37-87.55,1.16-105.91,2.52-7.07,7.67-13.58,10.39-20.6l-12,5.98c-2.98-20.3-.87-39.34-7.96-59.07-15.69-43.66-72.89-51.15-112.11-38.99-7.49-35.25-4.47-72.22-16.58-106.48-7.97-22.55-25.49-43.43-21.6-69.44-5.92.25-1.32,16.25-6.96,13.97-3.05-1.23-19.86-24.01-25.04-29.01-14.2-13.69-41.96-31.5-61.61-34.49-22.83-3.48-19.09-6.42-38.11-15.92-29.92-14.94-80.37-30.65-113.67-28.65-22.26,1.34-39.31,13.58-61.01,14.09-4.99-13.13,11.18-20.45,14.01-27.03,1.04-2.41-.55-3.89-2.95-2.95-7.59,2.95-36.53,34.97-43.03,43.04-19.45,24.12-46.11,59.52-63.02,85.06-5.29,7.99-25.34,48.83-29.64,51.39-2.22,1.32-11.24,1.32-15.94,3.1-16.22,6.14-19.92,25.56-13.76,40.18l-9.85,49.21c11.03-8.85,13.79-25.7,22-37.14,25.55,7.12,45.41-13.04,36.53-38.33-1.79-5.1-8.35-8.97-5.52-14.41,50.72-65.03,123.83-142.15,214.41-134.21,6.17.54,18.66,2.27,18.94,10.07-37.13,7.67-72.02,28.02-100.16,52.98-16.42,14.58-32.64,36.78-44.48,55.58-6.87,10.91-13.21,23.3-17.55,35.45,27.28-32.22,47.85-70.91,86.08-92,.2,6.31-.22,12.7.02,19.02.09,2.42-1.5,7.44,1.98,6.97,9.29-32.65,16.8-45.56,48.73-58.35,46.22-18.5,71.2-10.3,108.45,18.41,46.83,36.09,66.89,72.36,83.73,128.38,4.9,16.31,8.51,33.2,7.57,50.34-11.57,5.89-20.77,15.72-32.82,21.59-6.64,3.23-36.14,11.22-37.24,14.82-1.37,9.5,8.64,5.87,14.44,7.24,6.83,1.61,11.85,8.34,12.96,15.06l.05,129.11c-20.28,32.51-49.98,64-78.63,89.47-20.56,18.28-44.46,32.77-65.13,50.96,5.2.36,13.54-3.51,18.1-5.92,19.5-10.31,41.72-25.73,60.16-37.92,2.44-1.61,4.58-3.71,7.84-3.15l-23.23,33.78c-20.93,14.58-36.03,48.07-58.11,59.97-4.89,2.63-48.93,20.19-50.81,18.25-10.89-85.06-115.62-84.57-162.23-28v-43l-4.97-2.99c-7.3,7.07-15.99,14.25-24.97,19.03-7.94,4.22-43.08,13.72-43.98,17.99-1.26,5.96,14.47,5.08,19.81,8.14,2.97,1.7,8.24,7.48,9.27,10.72,3.52,11.15.68,46.91.81,61.19.11,11.99-.03,23.83-.01,35.82.03,24.33,3.84,52.2-.36,75.64-3.88,21.62-23.91,17.48-26.66,21.32l-.86,8.14h47.96l-7.97,22c6.63-2.86,7.68-17.8,15.95-13.98v-8.06c2.32,1.01,20.28-2.65,18,2.99-4.95,7.66-16.24,10.8-22.04,15.97-17.69,15.81-32.62,48.68-49.89,66.1-7.61,7.67-18.18,14.46-28.04,18.96-.44,3.54,6.9,2.15,8.81,1.81,3.17-.57,14.99-6.97,13.14-.87-1.32,4.37-6.78,11.73-8.94,17.06-4.95,12.18-9.94,30.63-16.39,41.43-1.83,3.06-5.8,3.59-6.47,5.8-.97,3.2,1.7,7.72,1.05,12.76-.17,1.33-3.6,13.54-7.2,9.97-1.25-4.16-.89-10.91-2.18-14.47-15.98-43.97-33.32-92.79-55.5-134.85-2.63-5-22.74-34.37-20.34-36.64,36.54-.65,70.05-15.8,90.82-46.18,3.28-4.79,20.19-32.06,6.18-31.9-4.95.06-17.37,19.96-22.98,25.1-27.64,25.33-85.8,27.76-112.07.03-23.18-24.47-36.91-54.67-33.95-89.03h169.01c8.05,0-.41-38.18-2.01-43.98-6.61-23.92-19.87-44.06-41.12-57.13l8.11-20.87-19.41,13.66c-64.48-23.28-131.03,7.43-154.13,71.77-2.7,7.52-3.16,15.53-5.52,22.55-.62,1.84-.48,5.39-3.91,3.98-4.32-1.77-10.24-13.79-14.01-18-8.1-9.07-29.32-25.54-30.97-37.12-.97-6.76-.47-11.89-.45-17.91.01-4.67.43-9.01.32-13.85-1.25-54.92.23-110.23,1.19-165.09-2.3-10.59-16.29,2.78-23.85,9.38l-12.96,5.71c-7.78,2.44-15.59,4.84-23.48,6.91l-2.67-.04c.21-1.79-2.14-4.23-2.14-4.92v-74.03c0-23.04,18.68-71.51,42.87-79.13,27.67-8.71,20.43,13.32,27.13,19.11,19.97,17.25,61.09-31.78,21.34-51.35-27.56-13.57-58.25,5.91-75.3,27.4-5.83,7.35-8.66,16.87-16.05,22.96v-59.01c0-1.78-3.94-3.44-6.66-2.7-3.17.86-10.62,10.72-14.39,13.65-14.88,11.58-34.81,16.2-52.95,20.08,1.19,15.98,28.47,5.48,29.87,27.1-.9,57.57,2.54,115.65-1.89,172.92-14.08,1.54-18.15-18.15-23.63-27.37-15.73-26.48-29.69-49.68-38.07-80.01-.62-5.92,7.17-3.78,10.38-5.04,2.67-1.04,2.56-4.03,3.98-5.07,1.73-1.27,4.51-.16,5.35-.55,2.39-1.12-10.53-45.31-11.45-51.55-1.73-11.65-5.45-86.76-.53-90.47l7.97,5.98c-9.21-43.5,17.99-102.3,45.96-135.06,8.51-9.97,39.3-38.87,50.09-43.92,2.07-.97,3.64-1.41,5.94-1.04-.83,5.09-4.23,7.97-5.54,13.46-.46,1.94-1.97,7.07,1.53,6.52,4.41-9.81,10.31-21.51,19.36-27.65,17.16-11.65,70.6-15.85,91.64-14.32,14.82,1.08,30.27,6.03,45.03,7.99l-3.99,15.99c6.92-3.36,7.79-14.26,16.71-13.94,9.8.35,41.03,12.23,51.77,16.44,11.56,4.54,37.02,14.66,44.38,23.63,17.41,21.21,33.87,60.74,43.16,86.86,6.72,18.9,10.7,43.09,17.84,60.17.85,2.03,1.44,4.65,4.1,4.87,3.66-17.67,10.73-37.03,11.99-55.04,3.25-46.16-19.21-81.19-37.53-120.44-5.28-11.31-12.46-19.91-22.42-28.57,2.51,7.52,9.35,13.38,11.6,21.39.68,2.43,1.53,5.79-2.58,4.58-6.44-1.88-27.71-18.73-36.44-23.58-50.56-28.04-132.5-55.13-189.62-52.43-18.71.89-36.63.32-54.97,6.01l5-17.99c-17.52,23.98-43.69,30.2-67.62,44.39-60.2,35.69-98.58,98.09-105.41,167.64l-17.98-13.98c3.19,8.02,12.87,15.69,15.07,23.92.73,2.73,4.93,30.76,4.93,33.08v44.01l-4.14,2.2c-24.65-11.22-49.6-10.56-75.43-3.77-87.74,23.06-112.15,149.99-55.46,214.64,47.17,53.79,138.75,51.63,180.06-8.02l4.04,1.93c3.52,10.59,32.58,46.16,32.97,53.26.39,7.02-19.3,15.12-26.07,17.8-45.47,17.97-96.04,13.36-141.49-.27-26.24-7.87-66.4-20.94-76.5-48.69-4.72-.41,1.14,9.75-4.94,7.96-4.81-1.42-44.03-29.86-50.87-35.15-9.75-7.54-30.98-24.51-30.13-37.57.51-7.74,7.55-17.6,15.96-17.3l-1.45-4-4.55.02c-.4-2.72.68-5.09,1.38-7.62,5.89-21.37,32.05-78.43,43.58-98.44,6.16-10.69,10.74-19.9,22.55-25.45,6.98-3.28,14.68.01,14.48-10.51h-83.12l-.79,7.91c33.8,1.51,22.8,28.2,14.89,50.05-13.95,38.54-34.06,79.66-50.09,118-1.03,2.46.23,4.88-3.86,4.04l-62.07-143.97c-5.46-20-1.68-24.11,18.85-28.24l.2-9.81h-102c-5.81,13.27,9.09,11.15,17.86,17.14,22.74,15.51,38.47,84.5,55.96,108.16l-6.86,6.36-9.97-9.64-2.02,8.02c-16.08-4.1-34.26-10.99-50.48-13.52-20.59-3.21-42.55-.62-62.49-8.49l3.97,4.98-3.25,2.72-62.71,12.29c-1.52-28.68,12.05-86.42,42.87-96.12,30.67-9.65,18.07,21.42,38.16,22.24,34.13,1.4,40.54-53.44-.03-58.14-43.2-5-54.36,21.05-76.42,49.48-1.3,1.67.06,3.63-4.58,2.52v-57l-4.97-2.99c-9.41,11.39-20.9,18.1-34.5,23.52-6.51,2.6-33.44,8.45-34.52,13.5-1.22,5.7,16.8,6.61,21.92,10.04,4.35,2.91,7.07,12.4,7.07,12.4v98.56s-20.79,12.84-31.19,18.78c-3.88,2.22-14.81,9.76-15.7,10.12-2.42.96-6.12-2.06-10.1-.04-3.09,1.57-7.04,10.66-10.05,14.07-12.95,14.64-27.95,24.75-47.47,28.53-70.05,13.57-113-41.68-108.49-107.49h169c6.68,0,1.35-31.23.37-36.37-6.11-32.13-27.19-60.13-58.01-71.99-15.14-5.83-31.23-6.92-47.36-7.65l5.99-17.98-24.13,20.85c-20.56,3.03-38.65,12.47-53.26,26.94l-8.58-3.8c1.73,15.44-12.41,26.64-18.76,40.26-13.68,29.34-17.17,74.73-8.27,105.75,28,97.6,154.52,120.22,209.85,33.83,3.75-5.86,5.75-14.33,9.1-18.9,9.24-12.59,33.92-20.91,48.06-26.94v59c0,2.52-5.73,15.7-7.95,18.05-6.18,6.52-16.71,4.62-22.01,11.96l3.23,3,102.52.09,1.32-5.88c-22.43-4.72-31.14-11.17-33.18-34.84-.64-7.46-.65-62.27,1.03-65.06,32.35-15.76,76.33-19.09,112.01-15.92,3.07.27,16.84,2.27,16.98,4.95l-5.95,8.98c22.86-9.72,66.8-6.47,76.02,19.99l2.97-5.97,40.62,91.31c2.32,7.02,12.11,9.27,17.42,4.62,3.79-3.32,16.5-43.5,21.23-52.71,1.41-2.74,2.3-7.01,6.29-6.88,12.83.42,57.99,38.41,72.01,48.03,23.3,15.98,49.88,33.82,76.39,43.57,38.18,14.04,82.36,23.95,123.05,17.92l.99,8c21.92-16.74,52.15-17.89,75.72-33.66,4.16,3.82,38.85,40.43,35.28,43.65-26.7-3.45-50.69-2.84-75.96,7.04-84.38,33.01-98.63,166.48-32.06,223.8,6.35,5.47,14.36,9.04,20.03,14.94-3.75.79-5.98-.64-9.1-1.88-40.24-16.03-79.09-37.18-108.89-69.05l7.98-4.96c-28.27-6.14-41.62-33.92-64.06-49.39.18-25.89,21.7-91.18,54.92-86.44,15.04,2.15,11.02,17.74,14.36,20.12,44.36,14.04,54.26-50.44,9.62-55.99-28.46-3.54-47.58,13.53-63.66,33.96-4.76,6.05-9.52,14.95-15.17,17.82v-57.95c-9.65-.41-15.84,8.99-24.66,14.33-16.12,9.75-34.31,12.84-49.3,22.64-.01,2.06,29.96,9.02,29.96,19.98v49.96c-4.93,4.51-15-.92-21.99.99l5.98-8.99c-5.44-1.9-11.57,8.17-17.53,10.46l-48.45,16.52c-3.46-28.73,3.17-61.51-11.68-87.25-27.53-47.74-145.25-40.77-166.71,7.95-17.3,39.27,40.02,48.31,45.95,21.94,4.57-20.29-8.6-31.63,20.48-41.49,36.83-12.48,62.14,10,65.7,46.15,2.28,23.09.33,26.36-20.4,35.09-42.13,17.74-119.05,26.27-126.85,83.08-9.64,70.22,76.04,90.17,124.14,56.09,5.52-3.91,20.13-21.55,24.33-21.65,4.48,29.37,25.76,42.09,54.66,34.63,10.66-2.75,34.14-19.84,19.38-30.22-8.37,8.11-24.35,7.85-28.13-4.27-4.24-13.6-4.37-63.99-2.98-79.14,1.33-14.5,16.36-19.11,29.56-22.42,12.2-3.06,8.49-2.89,15.87-6.05,9.31-3.99,28.64-2.96,38.66-.41v104.91c0,.65-2.95,11.21-3.52,12.47-3.9,8.5-15.38,14.19-24.47,14.53-1.67,1.78,4.22,7.98,5,7.98h98l.98-6.97c-12.43-5.08-22.6-3.23-28.42-17.57-.63-1.55-3.56-11.76-3.56-12.43v-75.94c0-.23,2.91-4,4-2.02,20.66,19.2,39.11,41.06,59.97,60,6.45,5.86,17.75,11.66,23.04,16.94,5.61,5.59,6.38,14.38,12,19.99l1.98-9.97c13.45,8.07,27.3,15.96,41.66,22.32,32.41,14.35,61.72,21.75,96.62,27.36,20.46,3.29,39.94.34,57.75,14.24,3.11-6.04-8.06-4.39-5.02-11.97,4.26-.29,8.74.51,12.98-.04,31.55-4.08,71.42-8.32,98.42-25.56,4.12-2.63,8.29-5.99,10.61-10.36-17.92,5.67-37.24,19.21-55.46,23.5-32.49,7.65-104.24,6.89-137.01-.06l-15.52-5.45c39.26,3.58,73.72-12.63,99-41.97l6.96,38.5c.58,1.65,2.22,2.23,3.8,2.44,11.33,1.54,51.16-21.65,66.22-21.98,7.57-13.6-13.84-9.93-21.83-14.13-13.63-7.16-12-27.43-12.14-40.81,7.17-.94,9.4,6.46,12.68,9.29,25.07,21.62,51.34,41.58,76.26,62.69,64.78,54.89,103.26,83.72,131.98,167.88,16.46,48.23,25.86,98.7,27.09,149.79l3.96-20.99c-3.12-11.98,3.43-25.91,3.63-35.92.29-14.14-7.46-36.23-5.16-51.5.36-2.36,2.54-10.88,5.52-11.47l4,31.95c-1-41.51,14.22-89.96,35.18-125.72,16.06-27.4,60.69-81.61,85.3-100.74,2.79-2.17,8.45-2.77,9.75-4.66,1.91-2.77-.57-6.31-.02-6.98.65-.8,4.63-2.23,6.38-3.65,15.56-12.55,31.08-27.14,46.43-39.99,7.15-5.99,19.7-21.12,26.99-24.99,2.02-1.07,3.78-1.24,5.99-.99l-2.48,54.45c-4.33,11.35-14.86,12.82-25.23,15.75l-.27,7.72h97.25c.62,0,3.68-4.07,4.97-5-9.09-6.17-17-3.76-24-13.99-11.48-16.8-4.41-59.35-3.88-80.07.13-5.09-2.3-9.91-2.06-13.83.59-9.6,29.68-28.45,38.02-36.07,14.49-13.25,43.75-47.35,58.19-55.88,12.18-7.2,35.06-12.45,49.27-18.8,36.57-16.34,73.35-40.38,99.81-70.33l6.96,7.98c-5.81-17.02,13.19-34.2,13.19-34.2,0,0,19.87-47.76,19.87-47.76l13,13.96c-15.13-37.21-1.6-76.77-3.9-115.08-.59-9.86-12.87-68.63-10.11-70.92,32.82-6.33,60.18,5.06,67.56,39.56,5.2,24.32,5.71,129.33.04,152.95-5.54,23.1-16.13,13.4-25.5,20.54-12.46,9.49,19.31,6.95,22.9,6.87,15.74-.34,32.53-.46,48.24,0,5.69.17,31.19,3.11,30.94-.93-.52-8.36-12.08-7.74-17.42-10.57ZM1729.52,220.51c0,13.07-10.59,23.66-23.66,23.66s-23.66-10.59-23.66-23.66,10.59-23.66,23.66-23.66,23.66,10.59,23.66,23.66ZM1427.24,55.97c-15.14-.4-29.73,2.04-44.07,1.95-2.4-.01-7.43,1.81-7.01-1.84,7.13-.8,12.98-5.28,19.54-7.47,12.39-4.15,35.29-10.19,47.93-12.07,44.82-6.68,87.28,17.77,116.52,49.5-44.86-13.76-85.19-28.82-132.91-30.08ZM1652.14,239.07c-.63,2.85-.04,6.23-3.98,7-6.23-44.93-30.74-83.04-48-124,6.94,5.97,17.93,12.46,23.68,19.3,6.41,7.61,24.64,38.76,27.86,48.14,6.3,18.38,4.53,31.15.44,49.56ZM1583.99,77.22c23.65,15.38,50.82,40.38,56.14,68.84-8.49-5.29-12.79-14.38-19.96-21.02-9.49-8.79-22.92-15.14-32.48-22.97-7.02-5.75-14.27-16.18-20.23-21.32-12.59-10.84-26.74-19.82-39.3-30.68,18.87,5.78,39.3,16.37,55.84,27.14ZM1214.18,107.11c3.84-5.01,26.2-30.28,30-32.01,5.3-2.41,12.3-.5,17.96-1.05l-3.86-6.71c54.67-48.07,134.98-54.95,203.85-39.24.18,2.93-7.18,3.53-9.22,3.74-37.07,3.93-72.22,9.97-105.37,28.63-21.33,12.01-46.37,34.36-68.66,43.34-9.48,3.82-20.53,5.73-30.73,6.28-.46,3.49,4.54,1.88,6.97,1.98,3.99.17,8.07-.29,12.05,0,2.98.22,5.79-1.55,4.95,2.97-14.73,18.44-33.43,33.47-49.01,51-5.82,6.55-9.09,14.99-17.03,19.51l-29.93,56.51c-5.94-44.16,11.02-99.69,38.02-134.95ZM1204.12,332.07c-13.18-7.15-12.96-21.6-12.05-35.08.6-8.83.64-18.5,10.21-20.13.13-6.5-.72-13.14.03-19.62.34-2.97,2.47-11.97,5.81-13.16-4,29.21-4.66,58.46-4,87.99ZM1208.98,501.77c-56.56,77.14-173.81,52.18-199.82-37.85-27.93-96.68,56.06-206.64,156.34-158.34,35.35,17.03,57.86,61.2,50.78,99.48l-171.91,1.09c-1.52,69.53,37.43,123.4,112.26,113.27,13.66-1.85,34-12.56,43.5-22.5,4.08-4.27,15.21-26.91,22.01-20.97-1.42,9.5-7.57,18.2-13.16,25.82ZM1201.12,490.14c-66.44,67.29-162.44,6.08-152.98-82.07h124c3.15,29.58,19.39,54.85,28.98,82.07ZM460.58,541.5c-106.55,32.78-177.51-75.98-140.48-172.48,42.82-111.59,208.57-90.25,202.04,35.04h-172c-3.99,43.74,11.75,93.92,56.03,110.97,29.89,11.5,67.17,9.24,92.92-11.01,10.32-8.12,15.83-19.25,25.03-27.95-4.51,28.45-36.79,57.2-63.55,65.43ZM618.35,508.86c1.97,17.22,7.47,23.7,23.1,28.99,3.1,1.05,5.72-1.75,4.68,4.21-22.16-1.97-44.71-2.58-67.07-2.08-6.12.14-13.99,5.43-16.91-1.88,13.38-2.06,18.77-17.07,19.97-29.04,5.07-50.39-3.74-108.74.03-159.99-.85-7.88-4.86-18.15-12.53-21.47-4.61-2-11.55-.23-13.47-5.5l31.36-9.66,30.64-18.36v74l28.06-44.94c15.35-21.62,58.65-40.18,76.85-12.96,15.51,23.21-15.92,46.52-26.96,34.94-4.74-4.98,1.46-14.71-12.49-19.49-41.45-14.21-63.51,55.29-65.54,85.36-1.72,25.46-2.53,73.17.3,97.87ZM881.88,536.81c-1.58,3.02-2.45,7.13-6.71,7.32-4.23.67-2.74-1.72-4.01-3.99-4.69-8.41-9.27-19.66-13.37-28.71-25.95-57.22-50.3-130.29-80.61-183.39-7.76-13.6-10.46-15.38-24.62-21.48-2.9-1.25-5.45,1.29-4.42-4.49h81c.72.18,3.51,3.31,3,3.98-18.88,4.17-14.4,19.38-10.51,33.54,9.77,35.55,37.98,92.6,54.16,127.84,1.7,3.7,9.53,22.21,11.38,22.63,3.41.79,3.94-2.78,5.07-4.9,15.2-28.44,52.44-115.21,58.96-145.04,2.31-10.58,5.9-21.07-2.97-29.14-5.09-4.64-12.65-3.03-12.09-8.91h49l10.98,3.97c-20.44,7.68-29.6,32.21-38.34,50.67-27.02,57.05-47.24,125.47-75.9,180.1ZM936.14,842.09c-11,25.35-49.39,32.74-64.41,7.4-5.55-9.37-4.94-19.49-8.58-29.4-10.93,12.66-22.29,26.56-37.13,34.87-84.09,47.09-170.76-61.48-53.23-113.23,15.81-6.96,83.07-25.56,89.15-34.85,8.04-12.27-.48-51.63-9.81-63.8-14.99-19.56-50.93-22.01-70.66-8.67-21.69,14.66-2.97,35.47-17.85,46.36-23.5,17.2-48.73-12.5-22.58-38.79,33.55-33.72,129.2-37.85,152.05,10.13,16.06,33.73,3.53,124.72,6.97,167.03,1.89,23.28,13.49,33.21,36.07,22.95ZM966.12,643.07c9.76-4.87,20.75-6.83,30.73-11.29,6.51-2.9,22.32-14.76,24.64-15.4,2.73-.75,6.65.9,6.65,2.68v67l30.92-48.08c17.74-16.64,39.12-29.33,63.86-17.69,21.96,10.33,15.19,44.18-7.77,45.87-14.48,1.07-8.53-4.15-12.06-12.03-7.01-15.61-29.19-11.1-40.81-2.94-16.5,11.59-26.75,39.73-31.23,58.77-1.34,5.68-.64,11.78-2.69,17.36-.79,2.15.97,3.45-3.08,2.64l-32.16-15.86c-5.3-25.6,12.28-68.29-26.98-71.04ZM1048.14,856.09c.58.74-2.62,3.98-3,3.98h-71l12.86-14.14c.4-2.95,5.14-11.34,5.14-12.86v-104c1.6-5.7,11.36-.13,14.71,1.29,5.12,2.17,19.39,10.03,20.88,15.12,2.32,25.83-1.81,53.76.66,79.34,1.27,13.12,4.78,28.63,19.74,31.28ZM1256.14,540.07c1.38-3.98,6.93-3.86,10.05-7.49.59-.69,6.97-11.01,7.42-12.05,4.57-10.71,3.71-66.66,3.8-83.13.15-26.64,1.01-62.58-1.19-88.41-.73-8.57-3.3-16.31-11.34-20.66-4.36-2.36-10.67-1.27-12.74-6.23,20.06-4.58,41.13-12.4,55.99-27.04,1.09-1.98,4,1.79,4,2.02,0,20.89,1.13,43.35,0,64-.03.47-4.71,12.6,1.97,6.99.95-.8,7.95-18.48,10.42-22.6,15.24-25.46,43.27-59.08,77.05-45.82,21.97,8.62,24.12,32.78,4.47,45.33-21.01,13.42-14.23-16.24-29.84-19.9-35.45-8.32-55.88,36.81-61.17,64.91-6.01,31.93-1.58,66.38-2.78,98.87l-8.96,3.02c-5.89,9.87,5.41,9.06,7.84,12.21,3.34,4.33,1.88,17.67,8.13,25.87,4.46,5.85,9.19,5.03,12.87,10.13h-76ZM1318.15,504.08c13.62.86,19.1,18.12,17.98,29.98-15.9-1.24-19.48-16.24-17.98-29.98ZM1284.51,552.7c-1.24-2.2-2.96-3.69-2.37-6.62.24-.62,4.84-2.73,7-2.02h47c-.29,20.79,1.76,41.79-4.02,62-7.44-.72-9.33-15.33-10.03-16.01-.57-.56-3.85,2.15-6.99.22-3.63-2.24-27.82-32.63-30.59-37.56ZM1405.15,840.11c3.1.69,3.49-1.36,2.99,3.93l-59.91,19.98-7.07-49.94c-31.89,46.88-83.64,67.16-136.06,38.04-123.34-68.5-29.8-299.78,113.66-221.66l23.38,17.6c-.25-8.39-1.79-16.94-2.07-24.91-1.08-30.26,4.3-73.65-.39-101.61-1.56-9.29-8.23-19.59-17.43-22.56-5.16-1.67-13.63,1.65-12.1-4.9,14.53-.93,49.94-16.37,51.84-17.1,4.19-1.6,8.88-6.76,12.16-9.94,6.8-3,1.99,12.69,1.91,15.94-2.66,109.8,1.96,220.01.34,329.84,2.29,21.91,9.43,22.96,28.76,27.29ZM1532.12,906.07c-12.75-11.55-25.62-23.13-39.03-33.95-32.23-25.99-58.23-46.94-88.92-75.08-10.24-9.39-22.56-10.82-24.12-27.88-.61-6.64-.51-49.14,2.11-51.09,4.61-.11,8.11,4.93,11.01,7.96,7.83,8.2,29.12,31.46,33.82,40.18,15.81,29.26,8.94,49.86,41.31,76.69,11.36,9.42,31.02,15.97,39.93,24.07,4.37,3.98,17.26,24.68,20.99,31.01,1.56,2.64,3.96,4.06,2.9,8.08ZM1443.21,800c-34.3-76.73,4.5-179.16,95.84-184.02,52.46-2.79,97.01,34.96,102.88,87.29.7,6.22,1.91,16.43-2.79,20.79h-171c2.33,41.6,11.38,88.62,52.63,108.37,29.17,13.97,72.31,12.08,98.32-8.42l25.04-25.94c-33.49,91.09-162.02,88.94-200.93,1.92ZM1826.17,789.09c-7.3,6.9-15.49,14.41-22.93,21.07-14.75,13.18-31.06,24.85-45.12,38.88-8.57,5.73-17.16-7.27-17.5-14.33-.46-9.74,51.58-73.4,61.47-83.7,14.46-15.06,31.76-27.99,49.98-38.09l4.08,2.14v44c-.57,2.04-25.92,26.19-29.97,30.03ZM1738.06,797.15c-1.69-27.56-2.81-77.42.08-104.09,5.33-49.27,93.85-74.21,112.96-20.95,3.12,8.7,10.05,32.35-2.75,33.72l-1.19-3.76c-4.58,3.98-8.38,9.13-12.98,13.02-12.01,10.17-36.41,32.84-48.13,39.87-4.91,2.95-10.16,4.74-15.89,5.12l7.96,4.94-37.95,51.04c.91-6.52-1.71-12.57-2.1-18.92ZM1904.72,851.48c.54.49,16.76,8.59,6.42,8.59h-77l20.03-10.97c3.83-4.97,5.11-13.87,5.71-20.29,3.28-34.91,3.04-98.56.23-133.72-3.08-38.46-24.49-61.14-64.77-56.82-25.14,2.7-55.4,23.68-60.32,49.67-4.85,25.65-3.09,122.02,1.23,149,.77,4.8,3.81,9.46,6.8,13.2l15.09,9.91h-80c-1.05-5.26,1.04-3.11,2.88-4.2,12.9-7.6,14.08-9.49,16.9-25.02,3.48-19.14.47-33.6.12-51.69-.62-32.45,3.96-65.77,2.17-98.19-1.1-19.97-3.87-34.35-26.07-37.9,18.89-8.05,38.82-13.84,55.21-26.85l4.78,2.84v45c13.13-10.55,21.6-23.74,36.16-32.84,49.58-30.96,119.38-13.82,125.58,50.09,4.33,44.58-3.11,94.75.28,139.72.57,7.61,3.06,25.45,8.56,30.43ZM1934.14,683.07c-4.31,5.23-12.76,13.62-17.97,18.03-1.8,1.52-12.69,10.5-14.02,8.96l.9-20.08,35.08-13.9c.87,3.76-2.13,4.74-3.99,6.99ZM2080.14,102.09c4.02-3.59,30.46,23.02,33.94,27.04,10.71,12.35,24.11,30.68,26.04,46.94l-59.98-73.98ZM2085.12,608.03l-4.95-5.95c-.62,9.82-7.75,14.73-15.38,19.63-6.03,3.87-47.14,23.6-50.64,20.34-.87-3.77,2.13-4.74,3.99-6.99,7.75-9.42,19.31-19.43,29.02-26.98,1.36,6.24-5.86,11.83-8.1,17.91-.69,1.86-1.45-.03,1.06,6.06l54.08-87.04c18.19,1.6,37.47-4.09,55.94,1.08,3.67,4.98-54.76,60.47-65.02,61.94ZM2163.89,524.82c-4.62,9.29-9.08,11.8-18.84,5.33-10.42-6.91-12.64-39.52-10.81-50.98.96-5.96,6.58-11.06,8.88-17.12,5.6-14.79,11.78-30.28,17.08-44.92,8.04-22.22,12.97-43.59,15.97-67.04,3.19.31,3.77,8.62,3.95,11.01,4.34,54.83,9.08,112.84-16.23,163.73ZM2232.14,542.07c-1.03-5.76,1.49-3.25,4.41-4.5,13.71-5.86,16.88-9.22,19.38-24.71,4.34-26.94,3.47-62.82,3.08-90.81-.44-31.91,4.16-84.21-33.5-98.35-36.71-13.78-82.87,7.2-93.42,45.32,4.33,44.84-5.71,100.34.22,143.88,2.42,17.77,15.15,25.72,31.49,26.83l-.78,2.35h-96.89c3.36-5.36,10.71-5.3,15.88-9.12,10.11-7.47,11.46-21.95,12.21-33.79,2.49-38.98,3.77-109.94-.35-147.84-1.11-10.24-3.13-18.7-13.34-22.6-2.17-.83-18.85-2.46-14.41-6.63,22.97-4.98,45.37-14.2,63.01-29.98,6.17,4.8,1.13,12.32.91,18.88-.34,10.32.41,20.76.1,31.08,4.69,1.31,3.38-1.23,4.56-2.55,15.14-16.99,24.21-28.42,46.91-36.96,29.98-11.28,74.25-9.19,96.48,16.57,32.64,37.82,11.39,145.18,18.57,195.43.94,6.58,3.19,13.23,8.37,17.63l19.1,9.9h-92Z"/>
</svg>
